<svg viewBox="-16 -32 880 192" width="880" height="192" xmlns="http://www.w3.org/2000/svg"><desc>Generated with https://github.com/Platane/snk</desc><style>:root{--cb:#1b1f230a;--cs:#93014f;--ce:#070019;--c0:#070019;--c1:#05404c;--c2:#1c8a8e;--c3:#1ab4ba;--c4:#16eff7}.c{shape-rendering:geometricPrecision;fill:var(--ce);stroke-width:1px;stroke:var(--cb);animation:none 36300ms linear infinite;width:12px;height:12px}@keyframes c0{5.22%{fill:var(--c1)}5.24%,100%{fill:var(--ce)}}.c.c0{fill:var(--c1);animation-name:c0}@keyframes c1{7.15%{fill:var(--c1)}7.17%,100%{fill:var(--ce)}}.c.c1{fill:var(--c1);animation-name:c1}@keyframes c2{64.45%{fill:var(--c2)}64.47%,100%{fill:var(--ce)}}.c.c2{fill:var(--c2);animation-name:c2}@keyframes c3{10.18%{fill:var(--c1)}10.2%,100%{fill:var(--ce)}}.c.c3{fill:var(--c1);animation-name:c3}@keyframes c4{9.91%{fill:var(--c1)}9.93%,100%{fill:var(--ce)}}.c.c4{fill:var(--c1);animation-name:c4}@keyframes c5{9.63%{fill:var(--c1)}9.65%,100%{fill:var(--ce)}}.c.c5{fill:var(--c1);animation-name:c5}@keyframes c6{9.36%{fill:var(--c1)}9.38%,100%{fill:var(--ce)}}.c.c6{fill:var(--c1);animation-name:c6}@keyframes c7{13.49%{fill:var(--c1)}13.51%,100%{fill:var(--ce)}}.c.c7{fill:var(--c1);animation-name:c7}@keyframes c8{12.39%{fill:var(--c1)}12.41%,100%{fill:var(--ce)}}.c.c8{fill:var(--c1);animation-name:c8}@keyframes c9{11.01%{fill:var(--c1)}11.03%,100%{fill:var(--ce)}}.c.c9{fill:var(--c1);animation-name:c9}@keyframes ca{14.04%{fill:var(--c1)}14.06%,100%{fill:var(--ce)}}.c.ca{fill:var(--c1);animation-name:ca}@keyframes cb{14.32%{fill:var(--c1)}14.34%,100%{fill:var(--ce)}}.c.cb{fill:var(--c1);animation-name:cb}@keyframes cc{14.59%{fill:var(--c1)}14.61%,100%{fill:var(--ce)}}.c.cc{fill:var(--c1);animation-name:cc}@keyframes cd{12.11%{fill:var(--c1)}12.13%,100%{fill:var(--ce)}}.c.cd{fill:var(--c1);animation-name:cd}@keyframes ce{11.28%{fill:var(--c1)}11.3%,100%{fill:var(--ce)}}.c.ce{fill:var(--c1);animation-name:ce}@keyframes cf{14.87%{fill:var(--c1)}14.89%,100%{fill:var(--ce)}}.c.cf{fill:var(--c1);animation-name:cf}@keyframes cg{11.84%{fill:var(--c1)}11.86%,100%{fill:var(--ce)}}.c.cg{fill:var(--c1);animation-name:cg}@keyframes ch{11.56%{fill:var(--c1)}11.58%,100%{fill:var(--ce)}}.c.ch{fill:var(--c1);animation-name:ch}@keyframes ci{16.79%{fill:var(--c1)}16.81%,100%{fill:var(--ce)}}.c.ci{fill:var(--c1);animation-name:ci}@keyframes cj{16.52%{fill:var(--c1)}16.54%,100%{fill:var(--ce)}}.c.cj{fill:var(--c1);animation-name:cj}@keyframes ck{16.24%{fill:var(--c1)}16.26%,100%{fill:var(--ce)}}.c.ck{fill:var(--c1);animation-name:ck}@keyframes cl{15.97%{fill:var(--c1)}15.99%,100%{fill:var(--ce)}}.c.cl{fill:var(--c1);animation-name:cl}@keyframes cm{17.07%{fill:var(--c1)}17.09%,100%{fill:var(--ce)}}.c.cm{fill:var(--c1);animation-name:cm}@keyframes cn{15.69%{fill:var(--c1)}15.71%,100%{fill:var(--ce)}}.c.cn{fill:var(--c1);animation-name:cn}@keyframes co{15.42%{fill:var(--c1)}15.44%,100%{fill:var(--ce)}}.c.co{fill:var(--c1);animation-name:co}@keyframes cp{27.81%{fill:var(--c1)}27.83%,100%{fill:var(--ce)}}.c.cp{fill:var(--c1);animation-name:cp}@keyframes cq{17.62%{fill:var(--c1)}17.64%,100%{fill:var(--ce)}}.c.cq{fill:var(--c1);animation-name:cq}@keyframes cr{17.35%{fill:var(--c1)}17.37%,100%{fill:var(--ce)}}.c.cr{fill:var(--c1);animation-name:cr}@keyframes cs{26.99%{fill:var(--c1)}27.01%,100%{fill:var(--ce)}}.c.cs{fill:var(--c1);animation-name:cs}@keyframes ct{26.71%{fill:var(--c1)}26.73%,100%{fill:var(--ce)}}.c.ct{fill:var(--c1);animation-name:ct}@keyframes cu{18.17%{fill:var(--c1)}18.19%,100%{fill:var(--ce)}}.c.cu{fill:var(--c1);animation-name:cu}@keyframes cv{17.9%{fill:var(--c1)}17.92%,100%{fill:var(--ce)}}.c.cv{fill:var(--c1);animation-name:cv}@keyframes cw{26.16%{fill:var(--c1)}26.18%,100%{fill:var(--ce)}}.c.cw{fill:var(--c1);animation-name:cw}@keyframes cx{60.6%{fill:var(--c2)}60.62%,100%{fill:var(--ce)}}.c.cx{fill:var(--c2);animation-name:cx}@keyframes cy{18.45%{fill:var(--c1)}18.47%,100%{fill:var(--ce)}}.c.cy{fill:var(--c1);animation-name:cy}@keyframes cz{19.55%{fill:var(--c1)}19.57%,100%{fill:var(--ce)}}.c.cz{fill:var(--c1);animation-name:cz}@keyframes c10{19.82%{fill:var(--c1)}19.84%,100%{fill:var(--ce)}}.c.c10{fill:var(--c1);animation-name:c10}@keyframes c11{25.61%{fill:var(--c1)}25.63%,100%{fill:var(--ce)}}.c.c11{fill:var(--c1);animation-name:c11}@keyframes c12{19%{fill:var(--c1)}19.02%,100%{fill:var(--ce)}}.c.c12{fill:var(--c1);animation-name:c12}@keyframes c13{57.01%{fill:var(--c2)}57.03%,100%{fill:var(--ce)}}.c.c13{fill:var(--c2);animation-name:c13}@keyframes c14{20.38%{fill:var(--c1)}20.4%,100%{fill:var(--ce)}}.c.c14{fill:var(--c1);animation-name:c14}@keyframes c15{79.88%{fill:var(--c3)}79.9%,100%{fill:var(--ce)}}.c.c15{fill:var(--c3);animation-name:c15}@keyframes c16{25.06%{fill:var(--c1)}25.08%,100%{fill:var(--ce)}}.c.c16{fill:var(--c1);animation-name:c16}@keyframes c17{57.57%{fill:var(--c2)}57.59%,100%{fill:var(--ce)}}.c.c17{fill:var(--c2);animation-name:c17}@keyframes c18{20.93%{fill:var(--c1)}20.95%,100%{fill:var(--ce)}}.c.c18{fill:var(--c1);animation-name:c18}@keyframes c19{80.71%{fill:var(--c4)}80.73%,100%{fill:var(--ce)}}.c.c19{fill:var(--c4);animation-name:c19}@keyframes c1a{80.43%{fill:var(--c3)}80.45%,100%{fill:var(--ce)}}.c.c1a{fill:var(--c3);animation-name:c1a}@keyframes c1b{56.19%{fill:var(--c2)}56.21%,100%{fill:var(--ce)}}.c.c1b{fill:var(--c2);animation-name:c1b}@keyframes c1c{56.46%{fill:var(--c2)}56.48%,100%{fill:var(--ce)}}.c.c1c{fill:var(--c2);animation-name:c1c}@keyframes c1d{21.48%{fill:var(--c1)}21.5%,100%{fill:var(--ce)}}.c.c1d{fill:var(--c1);animation-name:c1d}@keyframes c1e{21.2%{fill:var(--c1)}21.22%,100%{fill:var(--ce)}}.c.c1e{fill:var(--c1);animation-name:c1e}@keyframes c1f{58.39%{fill:var(--c2)}58.41%,100%{fill:var(--ce)}}.c.c1f{fill:var(--c2);animation-name:c1f}@keyframes c1g{23.96%{fill:var(--c1)}23.98%,100%{fill:var(--ce)}}.c.c1g{fill:var(--c1);animation-name:c1g}@keyframes c1h{29.74%{fill:var(--c1)}29.76%,100%{fill:var(--ce)}}.c.c1h{fill:var(--c1);animation-name:c1h}@keyframes c1i{44.34%{fill:var(--c1)}44.36%,100%{fill:var(--ce)}}.c.c1i{fill:var(--c1);animation-name:c1i}@keyframes c1j{21.75%{fill:var(--c1)}21.77%,100%{fill:var(--ce)}}.c.c1j{fill:var(--c1);animation-name:c1j}@keyframes c1k{23.41%{fill:var(--c1)}23.43%,100%{fill:var(--ce)}}.c.c1k{fill:var(--c1);animation-name:c1k}@keyframes c1l{23.68%{fill:var(--c1)}23.7%,100%{fill:var(--ce)}}.c.c1l{fill:var(--c1);animation-name:c1l}@keyframes c1m{30.02%{fill:var(--c1)}30.04%,100%{fill:var(--ce)}}.c.c1m{fill:var(--c1);animation-name:c1m}@keyframes c1n{55.64%{fill:var(--c2)}55.66%,100%{fill:var(--ce)}}.c.c1n{fill:var(--c2);animation-name:c1n}@keyframes c1o{55.36%{fill:var(--c2)}55.38%,100%{fill:var(--ce)}}.c.c1o{fill:var(--c2);animation-name:c1o}@keyframes c1p{22.03%{fill:var(--c1)}22.05%,100%{fill:var(--ce)}}.c.c1p{fill:var(--c1);animation-name:c1p}@keyframes c1q{30.29%{fill:var(--c1)}30.31%,100%{fill:var(--ce)}}.c.c1q{fill:var(--c1);animation-name:c1q}@keyframes c1r{55.09%{fill:var(--c2)}55.11%,100%{fill:var(--ce)}}.c.c1r{fill:var(--c2);animation-name:c1r}@keyframes c1s{22.3%{fill:var(--c1)}22.32%,100%{fill:var(--ce)}}.c.c1s{fill:var(--c1);animation-name:c1s}@keyframes c1t{31.67%{fill:var(--c1)}31.69%,100%{fill:var(--ce)}}.c.c1t{fill:var(--c1);animation-name:c1t}@keyframes c1u{34.7%{fill:var(--c1)}34.72%,100%{fill:var(--ce)}}.c.c1u{fill:var(--c1);animation-name:c1u}@keyframes c1v{34.98%{fill:var(--c1)}35%,100%{fill:var(--ce)}}.c.c1v{fill:var(--c1);animation-name:c1v}@keyframes c1w{76.57%{fill:var(--c3)}76.59%,100%{fill:var(--ce)}}.c.c1w{fill:var(--c3);animation-name:c1w}@keyframes c1x{48.75%{fill:var(--c2)}48.77%,100%{fill:var(--ce)}}.c.c1x{fill:var(--c2);animation-name:c1x}@keyframes c1y{83.19%{fill:var(--c4)}83.21%,100%{fill:var(--ce)}}.c.c1y{fill:var(--c4);animation-name:c1y}@keyframes c1z{36.63%{fill:var(--c1)}36.65%,100%{fill:var(--ce)}}.c.c1z{fill:var(--c1);animation-name:c1z}@keyframes c20{31.95%{fill:var(--c1)}31.97%,100%{fill:var(--ce)}}.c.c20{fill:var(--c1);animation-name:c20}@keyframes c21{34.43%{fill:var(--c1)}34.45%,100%{fill:var(--ce)}}.c.c21{fill:var(--c1);animation-name:c21}@keyframes c22{50.13%{fill:var(--c2)}50.15%,100%{fill:var(--ce)}}.c.c22{fill:var(--c2);animation-name:c22}@keyframes c23{48.47%{fill:var(--c1)}48.49%,100%{fill:var(--ce)}}.c.c23{fill:var(--c1);animation-name:c23}@keyframes c24{48.2%{fill:var(--c1)}48.22%,100%{fill:var(--ce)}}.c.c24{fill:var(--c1);animation-name:c24}@keyframes c25{36.9%{fill:var(--c1)}36.92%,100%{fill:var(--ce)}}.c.c25{fill:var(--c1);animation-name:c25}@keyframes c26{32.22%{fill:var(--c1)}32.24%,100%{fill:var(--ce)}}.c.c26{fill:var(--c1);animation-name:c26}@keyframes c27{75.47%{fill:var(--c3)}75.49%,100%{fill:var(--ce)}}.c.c27{fill:var(--c3);animation-name:c27}@keyframes c28{75.2%{fill:var(--c3)}75.22%,100%{fill:var(--ce)}}.c.c28{fill:var(--c3);animation-name:c28}@keyframes c29{72.17%{fill:var(--c1)}72.19%,100%{fill:var(--ce)}}.c.c29{fill:var(--c1);animation-name:c29}@keyframes c2a{84.01%{fill:var(--c4)}84.03%,100%{fill:var(--ce)}}.c.c2a{fill:var(--c4);animation-name:c2a}@keyframes c2b{73.27%{fill:var(--c3)}73.29%,100%{fill:var(--ce)}}.c.c2b{fill:var(--c3);animation-name:c2b}@keyframes c2c{51.51%{fill:var(--c2)}51.53%,100%{fill:var(--ce)}}.c.c2c{fill:var(--c2);animation-name:c2c}@keyframes c2d{32.5%{fill:var(--c1)}32.52%,100%{fill:var(--ce)}}.c.c2d{fill:var(--c1);animation-name:c2d}@keyframes c2e{33.32%{fill:var(--c1)}33.34%,100%{fill:var(--ce)}}.c.c2e{fill:var(--c1);animation-name:c2e}@keyframes c2f{84.84%{fill:var(--c4)}84.86%,100%{fill:var(--ce)}}.c.c2f{fill:var(--c4);animation-name:c2f}@keyframes c2g{72.44%{fill:var(--c3)}72.46%,100%{fill:var(--ce)}}.c.c2g{fill:var(--c3);animation-name:c2g}@keyframes c2h{39.11%{fill:var(--c1)}39.13%,100%{fill:var(--ce)}}.c.c2h{fill:var(--c1);animation-name:c2h}@keyframes c2i{73.82%{fill:var(--c3)}73.84%,100%{fill:var(--ce)}}.c.c2i{fill:var(--c3);animation-name:c2i}@keyframes c2j{32.77%{fill:var(--c1)}32.79%,100%{fill:var(--ce)}}.c.c2j{fill:var(--c1);animation-name:c2j}@keyframes c2k{33.05%{fill:var(--c1)}33.07%,100%{fill:var(--ce)}}.c.c2k{fill:var(--c1);animation-name:c2k}.u{transform-origin:0 0;transform:scale(0,1);animation:none linear 36300ms infinite}@keyframes u0{5.22%{transform:scale(0.000,1)}5.24%,7.15%{transform:scale(0.015,1)}7.17%,9.36%{transform:scale(0.030,1)}9.38%,9.63%{transform:scale(0.045,1)}9.65%,9.91%{transform:scale(0.060,1)}9.93%,10.18%{transform:scale(0.075,1)}10.2%,11.01%{transform:scale(0.090,1)}11.03%,11.28%{transform:scale(0.104,1)}11.3%,11.56%{transform:scale(0.119,1)}11.58%,11.84%{transform:scale(0.134,1)}11.86%,12.11%{transform:scale(0.149,1)}12.13%,12.39%{transform:scale(0.164,1)}12.41%,13.49%{transform:scale(0.179,1)}13.51%,14.04%{transform:scale(0.194,1)}14.06%,14.32%{transform:scale(0.209,1)}14.34%,14.59%{transform:scale(0.224,1)}14.61%,14.87%{transform:scale(0.239,1)}14.89%,15.42%{transform:scale(0.254,1)}15.44%,15.69%{transform:scale(0.269,1)}15.71%,15.97%{transform:scale(0.284,1)}15.99%,16.24%{transform:scale(0.299,1)}16.26%,16.52%{transform:scale(0.313,1)}16.54%,16.79%{transform:scale(0.328,1)}16.81%,17.07%{transform:scale(0.343,1)}17.09%,17.35%{transform:scale(0.358,1)}17.37%,17.62%{transform:scale(0.373,1)}17.64%,17.9%{transform:scale(0.388,1)}17.92%,18.17%{transform:scale(0.403,1)}18.19%,18.45%{transform:scale(0.418,1)}18.47%,19%{transform:scale(0.433,1)}19.02%,19.55%{transform:scale(0.448,1)}19.57%,19.82%{transform:scale(0.463,1)}19.84%,20.38%{transform:scale(0.478,1)}20.4%,20.93%{transform:scale(0.493,1)}20.95%,21.2%{transform:scale(0.507,1)}21.22%,21.48%{transform:scale(0.522,1)}21.5%,21.75%{transform:scale(0.537,1)}21.77%,22.03%{transform:scale(0.552,1)}22.05%,22.3%{transform:scale(0.567,1)}22.32%,23.41%{transform:scale(0.582,1)}23.43%,23.68%{transform:scale(0.597,1)}23.7%,23.96%{transform:scale(0.612,1)}23.98%,25.06%{transform:scale(0.627,1)}25.08%,25.61%{transform:scale(0.642,1)}25.63%,26.16%{transform:scale(0.657,1)}26.18%,26.71%{transform:scale(0.672,1)}26.73%,26.99%{transform:scale(0.687,1)}27.01%,27.81%{transform:scale(0.701,1)}27.83%,29.74%{transform:scale(0.716,1)}29.76%,30.02%{transform:scale(0.731,1)}30.04%,30.29%{transform:scale(0.746,1)}30.31%,31.67%{transform:scale(0.761,1)}31.69%,31.95%{transform:scale(0.776,1)}31.97%,32.22%{transform:scale(0.791,1)}32.24%,32.5%{transform:scale(0.806,1)}32.52%,32.77%{transform:scale(0.821,1)}32.79%,33.05%{transform:scale(0.836,1)}33.07%,33.32%{transform:scale(0.851,1)}33.34%,34.43%{transform:scale(0.866,1)}34.45%,34.7%{transform:scale(0.881,1)}34.72%,34.98%{transform:scale(0.896,1)}35%,36.63%{transform:scale(0.910,1)}36.65%,36.9%{transform:scale(0.925,1)}36.92%,39.11%{transform:scale(0.940,1)}39.13%,44.34%{transform:scale(0.955,1)}44.36%,48.2%{transform:scale(0.970,1)}48.22%,48.47%{transform:scale(0.985,1)}48.49%,100%{transform:scale(1.000,1)}}.u.u0{fill:var(--c1);animation-name:u0;transform-origin:0.0px 0}@keyframes u1{48.75%{transform:scale(0.000,1)}48.77%,50.13%{transform:scale(0.077,1)}50.15%,51.51%{transform:scale(0.154,1)}51.53%,55.09%{transform:scale(0.231,1)}55.11%,55.36%{transform:scale(0.308,1)}55.38%,55.64%{transform:scale(0.385,1)}55.66%,56.19%{transform:scale(0.462,1)}56.21%,56.46%{transform:scale(0.538,1)}56.48%,57.01%{transform:scale(0.615,1)}57.03%,57.57%{transform:scale(0.692,1)}57.59%,58.39%{transform:scale(0.769,1)}58.41%,60.6%{transform:scale(0.846,1)}60.62%,64.45%{transform:scale(0.923,1)}64.47%,100%{transform:scale(1.000,1)}}.u.u1{fill:var(--c2);animation-name:u1;transform-origin:610.9px 0}@keyframes u2{72.17%{transform:scale(0.000,1)}72.19%,100%{transform:scale(1.000,1)}}.u.u2{fill:var(--c1);animation-name:u2;transform-origin:729.5px 0}@keyframes u3{72.44%{transform:scale(0.000,1)}72.46%,73.27%{transform:scale(0.125,1)}73.29%,73.82%{transform:scale(0.250,1)}73.84%,75.2%{transform:scale(0.375,1)}75.22%,75.47%{transform:scale(0.500,1)}75.49%,76.57%{transform:scale(0.625,1)}76.59%,79.88%{transform:scale(0.750,1)}79.9%,80.43%{transform:scale(0.875,1)}80.45%,100%{transform:scale(1.000,1)}}.u.u3{fill:var(--c3);animation-name:u3;transform-origin:738.6px 0}@keyframes u4{80.71%{transform:scale(0.000,1)}80.73%,83.19%{transform:scale(0.250,1)}83.21%,84.01%{transform:scale(0.500,1)}84.03%,84.84%{transform:scale(0.750,1)}84.86%,100%{transform:scale(1.000,1)}}.u.u4{fill:var(--c4);animation-name:u4;transform-origin:811.5px 0}.s{shape-rendering:geometricPrecision;fill:var(--cs);animation:none linear 36300ms infinite}@keyframes s0{0%,99.72%{transform:translate(0px,-16px)}0.28%{transform:translate(0px,0px)}4.68%{transform:translate(256px,0px)}5.23%{transform:translate(256px,32px)}6.34%{transform:translate(320px,32px)}7.16%{transform:translate(320px,80px)}9.09%{transform:translate(432px,80px)}10.19%{transform:translate(432px,16px)}11.57%{transform:translate(512px,16px)}11.85%{transform:translate(512px,0px)}12.67%{transform:translate(464px,0px)}13.5%{transform:translate(464px,48px)}13.77%{transform:translate(480px,48px)}14.6%{transform:translate(480px,96px)}15.43%{transform:translate(528px,96px)}15.7%{transform:translate(528px,80px)}15.98%{transform:translate(512px,80px)}16.8%{transform:translate(512px,32px)}17.36%{transform:translate(544px,32px)}17.63%{transform:translate(544px,16px)}17.91%{transform:translate(560px,16px)}18.18%{transform:translate(560px,0px)}19.01%{transform:translate(608px,0px)}19.28%{transform:translate(608px,16px)}19.56%{transform:translate(592px,16px)}20.11%{transform:translate(592px,48px)}20.39%,57.3%,79.34%{transform:translate(608px,48px)}20.66%{transform:translate(608px,64px)}21.21%{transform:translate(640px,64px)}21.49%,57.85%{transform:translate(640px,48px)}22.31%{transform:translate(688px,48px)}22.59%{transform:translate(688px,64px)}23.14%{transform:translate(656px,64px)}23.69%{transform:translate(656px,96px)}23.97%{transform:translate(640px,96px)}24.24%,58.95%{transform:translate(640px,112px)}24.79%,59.5%{transform:translate(608px,112px)}25.07%,59.78%,80.17%{transform:translate(608px,96px)}25.34%{transform:translate(592px,96px)}25.62%{transform:translate(592px,80px)}26.17%{transform:translate(560px,80px)}26.45%{transform:translate(560px,64px)}26.72%{transform:translate(544px,64px)}27.82%{transform:translate(544px,0px)}32.78%,41.05%{transform:translate(832px,0px)}33.06%{transform:translate(832px,16px)}33.33%{transform:translate(816px,16px)}33.61%{transform:translate(816px,0px)}34.16%{transform:translate(784px,0px)}34.44%{transform:translate(784px,16px)}34.71%,76.03%{transform:translate(768px,16px)}34.99%{transform:translate(768px,32px)}35.26%,49.59%{transform:translate(752px,32px)}36.36%,47.38%{transform:translate(752px,96px)}36.91%,47.93%,51.24%{transform:translate(784px,96px)}37.19%,52.07%{transform:translate(784px,112px)}38.02%{transform:translate(832px,112px)}38.84%{transform:translate(832px,64px)}39.12%,84.3%{transform:translate(816px,64px)}39.39%,73%{transform:translate(816px,80px)}39.67%{transform:translate(832px,80px)}44.08%{transform:translate(656px,0px)}44.9%{transform:translate(656px,48px)}46.56%{transform:translate(752px,48px)}48.48%,71.63%{transform:translate(784px,64px)}49.04%{transform:translate(752px,64px)}50.14%,53.44%{transform:translate(784px,32px)}51.52%,73.55%{transform:translate(800px,96px)}51.79%{transform:translate(800px,112px)}55.37%{transform:translate(672px,32px)}55.65%{transform:translate(672px,16px)}56.2%{transform:translate(640px,16px)}56.47%{transform:translate(640px,32px)}57.02%{transform:translate(608px,32px)}60.61%{transform:translate(560px,96px)}61.43%{transform:translate(560px,48px)}64.46%{transform:translate(384px,48px)}64.74%{transform:translate(384px,64px)}71.9%{transform:translate(784px,48px)}72.45%,74.66%{transform:translate(816px,48px)}73.28%,83.75%{transform:translate(800px,80px)}73.83%{transform:translate(816px,96px)}74.93%{transform:translate(800px,48px)}75.48%{transform:translate(800px,16px)}76.58%{transform:translate(768px,48px)}80.44%{transform:translate(624px,96px)}80.72%{transform:translate(624px,80px)}84.02%{transform:translate(800px,64px)}84.85%{transform:translate(816px,32px)}98.07%{transform:translate(48px,32px)}98.9%{transform:translate(48px,-16px)}}.s.s0{transform:translate(0px,-16px);animation-name:s0}@keyframes s1{0%,99.72%{transform:translate(16px,-16px)}0.28%{transform:translate(0px,-16px)}0.55%{transform:translate(0px,0px)}4.96%{transform:translate(256px,0px)}5.51%{transform:translate(256px,32px)}6.61%{transform:translate(320px,32px)}7.44%{transform:translate(320px,80px)}9.37%{transform:translate(432px,80px)}10.47%{transform:translate(432px,16px)}11.85%{transform:translate(512px,16px)}12.12%{transform:translate(512px,0px)}12.95%{transform:translate(464px,0px)}13.77%{transform:translate(464px,48px)}14.05%{transform:translate(480px,48px)}14.88%{transform:translate(480px,96px)}15.7%{transform:translate(528px,96px)}15.98%{transform:translate(528px,80px)}16.25%{transform:translate(512px,80px)}17.08%{transform:translate(512px,32px)}17.63%{transform:translate(544px,32px)}17.91%{transform:translate(544px,16px)}18.18%{transform:translate(560px,16px)}18.46%{transform:translate(560px,0px)}19.28%{transform:translate(608px,0px)}19.56%{transform:translate(608px,16px)}19.83%{transform:translate(592px,16px)}20.39%{transform:translate(592px,48px)}20.66%,57.58%,79.61%{transform:translate(608px,48px)}20.94%{transform:translate(608px,64px)}21.49%{transform:translate(640px,64px)}21.76%,58.13%{transform:translate(640px,48px)}22.59%{transform:translate(688px,48px)}22.87%{transform:translate(688px,64px)}23.42%{transform:translate(656px,64px)}23.97%{transform:translate(656px,96px)}24.24%{transform:translate(640px,96px)}24.52%,59.23%{transform:translate(640px,112px)}25.07%,59.78%{transform:translate(608px,112px)}25.34%,60.06%,80.44%{transform:translate(608px,96px)}25.62%{transform:translate(592px,96px)}25.9%{transform:translate(592px,80px)}26.45%{transform:translate(560px,80px)}26.72%{transform:translate(560px,64px)}27%{transform:translate(544px,64px)}28.1%{transform:translate(544px,0px)}33.06%,41.32%{transform:translate(832px,0px)}33.33%{transform:translate(832px,16px)}33.61%{transform:translate(816px,16px)}33.88%{transform:translate(816px,0px)}34.44%{transform:translate(784px,0px)}34.71%{transform:translate(784px,16px)}34.99%,76.31%{transform:translate(768px,16px)}35.26%{transform:translate(768px,32px)}35.54%,49.86%{transform:translate(752px,32px)}36.64%,47.66%{transform:translate(752px,96px)}37.19%,48.21%,51.52%{transform:translate(784px,96px)}37.47%,52.34%{transform:translate(784px,112px)}38.29%{transform:translate(832px,112px)}39.12%{transform:translate(832px,64px)}39.39%,84.57%{transform:translate(816px,64px)}39.67%,73.28%{transform:translate(816px,80px)}39.94%{transform:translate(832px,80px)}44.35%{transform:translate(656px,0px)}45.18%{transform:translate(656px,48px)}46.83%{transform:translate(752px,48px)}48.76%,71.9%{transform:translate(784px,64px)}49.31%{transform:translate(752px,64px)}50.41%,53.72%{transform:translate(784px,32px)}51.79%,73.83%{transform:translate(800px,96px)}52.07%{transform:translate(800px,112px)}55.65%{transform:translate(672px,32px)}55.92%{transform:translate(672px,16px)}56.47%{transform:translate(640px,16px)}56.75%{transform:translate(640px,32px)}57.3%{transform:translate(608px,32px)}60.88%{transform:translate(560px,96px)}61.71%{transform:translate(560px,48px)}64.74%{transform:translate(384px,48px)}65.01%{transform:translate(384px,64px)}72.18%{transform:translate(784px,48px)}72.73%,74.93%{transform:translate(816px,48px)}73.55%,84.02%{transform:translate(800px,80px)}74.1%{transform:translate(816px,96px)}75.21%{transform:translate(800px,48px)}75.76%{transform:translate(800px,16px)}76.86%{transform:translate(768px,48px)}80.72%{transform:translate(624px,96px)}80.99%{transform:translate(624px,80px)}84.3%{transform:translate(800px,64px)}85.12%{transform:translate(816px,32px)}98.35%{transform:translate(48px,32px)}99.17%{transform:translate(48px,-16px)}}.s.s1{transform:translate(16px,-16px);animation-name:s1}@keyframes s2{0%,99.72%{transform:translate(32px,-16px)}0.55%{transform:translate(0px,-16px)}0.83%{transform:translate(0px,0px)}5.23%{transform:translate(256px,0px)}5.79%{transform:translate(256px,32px)}6.89%{transform:translate(320px,32px)}7.71%{transform:translate(320px,80px)}9.64%{transform:translate(432px,80px)}10.74%{transform:translate(432px,16px)}12.12%{transform:translate(512px,16px)}12.4%{transform:translate(512px,0px)}13.22%{transform:translate(464px,0px)}14.05%{transform:translate(464px,48px)}14.33%{transform:translate(480px,48px)}15.15%{transform:translate(480px,96px)}15.98%{transform:translate(528px,96px)}16.25%{transform:translate(528px,80px)}16.53%{transform:translate(512px,80px)}17.36%{transform:translate(512px,32px)}17.91%{transform:translate(544px,32px)}18.18%{transform:translate(544px,16px)}18.46%{transform:translate(560px,16px)}18.73%{transform:translate(560px,0px)}19.56%{transform:translate(608px,0px)}19.83%{transform:translate(608px,16px)}20.11%{transform:translate(592px,16px)}20.66%{transform:translate(592px,48px)}20.94%,57.85%,79.89%{transform:translate(608px,48px)}21.21%{transform:translate(608px,64px)}21.76%{transform:translate(640px,64px)}22.04%,58.4%{transform:translate(640px,48px)}22.87%{transform:translate(688px,48px)}23.14%{transform:translate(688px,64px)}23.69%{transform:translate(656px,64px)}24.24%{transform:translate(656px,96px)}24.52%{transform:translate(640px,96px)}24.79%,59.5%{transform:translate(640px,112px)}25.34%,60.06%{transform:translate(608px,112px)}25.62%,60.33%,80.72%{transform:translate(608px,96px)}25.9%{transform:translate(592px,96px)}26.17%{transform:translate(592px,80px)}26.72%{transform:translate(560px,80px)}27%{transform:translate(560px,64px)}27.27%{transform:translate(544px,64px)}28.37%{transform:translate(544px,0px)}33.33%,41.6%{transform:translate(832px,0px)}33.61%{transform:translate(832px,16px)}33.88%{transform:translate(816px,16px)}34.16%{transform:translate(816px,0px)}34.71%{transform:translate(784px,0px)}34.99%{transform:translate(784px,16px)}35.26%,76.58%{transform:translate(768px,16px)}35.54%{transform:translate(768px,32px)}35.81%,50.14%{transform:translate(752px,32px)}36.91%,47.93%{transform:translate(752px,96px)}37.47%,48.48%,51.79%{transform:translate(784px,96px)}37.74%,52.62%{transform:translate(784px,112px)}38.57%{transform:translate(832px,112px)}39.39%{transform:translate(832px,64px)}39.67%,84.85%{transform:translate(816px,64px)}39.94%,73.55%{transform:translate(816px,80px)}40.22%{transform:translate(832px,80px)}44.63%{transform:translate(656px,0px)}45.45%{transform:translate(656px,48px)}47.11%{transform:translate(752px,48px)}49.04%,72.18%{transform:translate(784px,64px)}49.59%{transform:translate(752px,64px)}50.69%,53.99%{transform:translate(784px,32px)}52.07%,74.1%{transform:translate(800px,96px)}52.34%{transform:translate(800px,112px)}55.92%{transform:translate(672px,32px)}56.2%{transform:translate(672px,16px)}56.75%{transform:translate(640px,16px)}57.02%{transform:translate(640px,32px)}57.58%{transform:translate(608px,32px)}61.16%{transform:translate(560px,96px)}61.98%{transform:translate(560px,48px)}65.01%{transform:translate(384px,48px)}65.29%{transform:translate(384px,64px)}72.45%{transform:translate(784px,48px)}73%,75.21%{transform:translate(816px,48px)}73.83%,84.3%{transform:translate(800px,80px)}74.38%{transform:translate(816px,96px)}75.48%{transform:translate(800px,48px)}76.03%{transform:translate(800px,16px)}77.13%{transform:translate(768px,48px)}80.99%{transform:translate(624px,96px)}81.27%{transform:translate(624px,80px)}84.57%{transform:translate(800px,64px)}85.4%{transform:translate(816px,32px)}98.62%{transform:translate(48px,32px)}99.45%{transform:translate(48px,-16px)}}.s.s2{transform:translate(32px,-16px);animation-name:s2}@keyframes s3{0%,99.72%{transform:translate(48px,-16px)}0.83%{transform:translate(0px,-16px)}1.1%{transform:translate(0px,0px)}5.51%{transform:translate(256px,0px)}6.06%{transform:translate(256px,32px)}7.16%{transform:translate(320px,32px)}7.99%{transform:translate(320px,80px)}9.92%{transform:translate(432px,80px)}11.02%{transform:translate(432px,16px)}12.4%{transform:translate(512px,16px)}12.67%{transform:translate(512px,0px)}13.5%{transform:translate(464px,0px)}14.33%{transform:translate(464px,48px)}14.6%{transform:translate(480px,48px)}15.43%{transform:translate(480px,96px)}16.25%{transform:translate(528px,96px)}16.53%{transform:translate(528px,80px)}16.8%{transform:translate(512px,80px)}17.63%{transform:translate(512px,32px)}18.18%{transform:translate(544px,32px)}18.46%{transform:translate(544px,16px)}18.73%{transform:translate(560px,16px)}19.01%{transform:translate(560px,0px)}19.83%{transform:translate(608px,0px)}20.11%{transform:translate(608px,16px)}20.39%{transform:translate(592px,16px)}20.94%{transform:translate(592px,48px)}21.21%,58.13%,80.17%{transform:translate(608px,48px)}21.49%{transform:translate(608px,64px)}22.04%{transform:translate(640px,64px)}22.31%,58.68%{transform:translate(640px,48px)}23.14%{transform:translate(688px,48px)}23.42%{transform:translate(688px,64px)}23.97%{transform:translate(656px,64px)}24.52%{transform:translate(656px,96px)}24.79%{transform:translate(640px,96px)}25.07%,59.78%{transform:translate(640px,112px)}25.62%,60.33%{transform:translate(608px,112px)}25.9%,60.61%,80.99%{transform:translate(608px,96px)}26.17%{transform:translate(592px,96px)}26.45%{transform:translate(592px,80px)}27%{transform:translate(560px,80px)}27.27%{transform:translate(560px,64px)}27.55%{transform:translate(544px,64px)}28.65%{transform:translate(544px,0px)}33.61%,41.87%{transform:translate(832px,0px)}33.88%{transform:translate(832px,16px)}34.16%{transform:translate(816px,16px)}34.44%{transform:translate(816px,0px)}34.99%{transform:translate(784px,0px)}35.26%{transform:translate(784px,16px)}35.54%,76.86%{transform:translate(768px,16px)}35.81%{transform:translate(768px,32px)}36.09%,50.41%{transform:translate(752px,32px)}37.19%,48.21%{transform:translate(752px,96px)}37.74%,48.76%,52.07%{transform:translate(784px,96px)}38.02%,52.89%{transform:translate(784px,112px)}38.84%{transform:translate(832px,112px)}39.67%{transform:translate(832px,64px)}39.94%,85.12%{transform:translate(816px,64px)}40.22%,73.83%{transform:translate(816px,80px)}40.5%{transform:translate(832px,80px)}44.9%{transform:translate(656px,0px)}45.73%{transform:translate(656px,48px)}47.38%{transform:translate(752px,48px)}49.31%,72.45%{transform:translate(784px,64px)}49.86%{transform:translate(752px,64px)}50.96%,54.27%{transform:translate(784px,32px)}52.34%,74.38%{transform:translate(800px,96px)}52.62%{transform:translate(800px,112px)}56.2%{transform:translate(672px,32px)}56.47%{transform:translate(672px,16px)}57.02%{transform:translate(640px,16px)}57.3%{transform:translate(640px,32px)}57.85%{transform:translate(608px,32px)}61.43%{transform:translate(560px,96px)}62.26%{transform:translate(560px,48px)}65.29%{transform:translate(384px,48px)}65.56%{transform:translate(384px,64px)}72.73%{transform:translate(784px,48px)}73.28%,75.48%{transform:translate(816px,48px)}74.1%,84.57%{transform:translate(800px,80px)}74.66%{transform:translate(816px,96px)}75.76%{transform:translate(800px,48px)}76.31%{transform:translate(800px,16px)}77.41%{transform:translate(768px,48px)}81.27%{transform:translate(624px,96px)}81.54%{transform:translate(624px,80px)}84.85%{transform:translate(800px,64px)}85.67%{transform:translate(816px,32px)}98.9%{transform:translate(48px,32px)}}.s.s3{transform:translate(48px,-16px);animation-name:s3}</style><rect class="c" x="2" y="2" rx="2" ry="2"/><rect class="c" x="2" y="18" rx="2" ry="2"/><rect class="c" x="2" y="34" rx="2" ry="2"/><rect class="c" x="2" y="50" rx="2" ry="2"/><rect class="c" x="2" y="66" rx="2" ry="2"/><rect class="c" x="2" y="82" rx="2" ry="2"/><rect class="c" x="2" y="98" rx="2" ry="2"/><rect class="c" x="18" y="2" rx="2" ry="2"/><rect class="c" x="18" y="18" rx="2" ry="2"/><rect class="c" x="18" y="34" rx="2" ry="2"/><rect class="c" x="18" y="50" rx="2" ry="2"/><rect class="c" x="18" y="66" rx="2" ry="2"/><rect class="c" x="18" y="82" rx="2" ry="2"/><rect class="c" x="18" y="98" rx="2" ry="2"/><rect class="c" x="34" y="2" rx="2" ry="2"/><rect class="c" x="34" y="18" rx="2" ry="2"/><rect class="c" x="34" y="34" rx="2" ry="2"/><rect class="c" x="34" y="50" rx="2" ry="2"/><rect class="c" x="34" y="66" rx="2" ry="2"/><rect class="c" x="34" y="82" rx="2" ry="2"/><rect class="c" x="34" y="98" rx="2" ry="2"/><rect class="c" x="50" y="2" rx="2" ry="2"/><rect class="c" x="50" y="18" rx="2" ry="2"/><rect class="c" x="50" y="34" rx="2" ry="2"/><rect class="c" x="50" y="50" rx="2" ry="2"/><rect class="c" x="50" y="66" rx="2" ry="2"/><rect class="c" x="50" y="82" rx="2" ry="2"/><rect class="c" x="50" y="98" rx="2" ry="2"/><rect class="c" x="66" y="2" rx="2" ry="2"/><rect class="c" x="66" y="18" rx="2" ry="2"/><rect class="c" x="66" y="34" rx="2" ry="2"/><rect class="c" x="66" y="50" rx="2" ry="2"/><rect class="c" x="66" y="66" rx="2" ry="2"/><rect class="c" x="66" y="82" rx="2" ry="2"/><rect class="c" x="66" y="98" rx="2" ry="2"/><rect class="c" x="82" y="2" rx="2" ry="2"/><rect class="c" x="82" y="18" rx="2" ry="2"/><rect class="c" x="82" y="34" rx="2" ry="2"/><rect class="c" x="82" y="50" rx="2" ry="2"/><rect class="c" x="82" y="66" rx="2" ry="2"/><rect class="c" x="82" y="82" rx="2" ry="2"/><rect class="c" x="82" y="98" rx="2" ry="2"/><rect class="c" x="98" y="2" rx="2" ry="2"/><rect class="c" x="98" y="18" rx="2" ry="2"/><rect class="c" x="98" y="34" rx="2" ry="2"/><rect class="c" x="98" y="50" rx="2" ry="2"/><rect class="c" x="98" y="66" rx="2" ry="2"/><rect class="c" x="98" y="82" rx="2" ry="2"/><rect class="c" x="98" y="98" rx="2" ry="2"/><rect class="c" x="114" y="2" rx="2" ry="2"/><rect class="c" x="114" y="18" rx="2" ry="2"/><rect class="c" x="114" y="34" rx="2" ry="2"/><rect class="c" x="114" y="50" rx="2" ry="2"/><rect class="c" x="114" y="66" rx="2" ry="2"/><rect class="c" x="114" y="82" rx="2" ry="2"/><rect class="c" x="114" y="98" rx="2" ry="2"/><rect class="c" x="130" y="2" rx="2" ry="2"/><rect class="c" x="130" y="18" rx="2" ry="2"/><rect class="c" x="130" y="34" rx="2" ry="2"/><rect class="c" x="130" y="50" rx="2" ry="2"/><rect class="c" x="130" y="66" rx="2" ry="2"/><rect class="c" x="130" y="82" rx="2" ry="2"/><rect class="c" x="130" y="98" rx="2" ry="2"/><rect class="c" x="146" y="2" rx="2" ry="2"/><rect class="c" x="146" y="18" rx="2" ry="2"/><rect class="c" x="146" y="34" rx="2" ry="2"/><rect class="c" x="146" y="50" rx="2" ry="2"/><rect class="c" x="146" y="66" rx="2" ry="2"/><rect class="c" x="146" y="82" rx="2" ry="2"/><rect class="c" x="146" y="98" rx="2" ry="2"/><rect class="c" x="162" y="2" rx="2" ry="2"/><rect class="c" x="162" y="18" rx="2" ry="2"/><rect class="c" x="162" y="34" rx="2" ry="2"/><rect class="c" x="162" y="50" rx="2" ry="2"/><rect class="c" x="162" y="66" rx="2" ry="2"/><rect class="c" x="162" y="82" rx="2" ry="2"/><rect class="c" x="162" y="98" rx="2" ry="2"/><rect class="c" x="178" y="2" rx="2" ry="2"/><rect class="c" x="178" y="18" rx="2" ry="2"/><rect class="c" x="178" y="34" rx="2" ry="2"/><rect class="c" x="178" y="50" rx="2" ry="2"/><rect class="c" x="178" y="66" rx="2" ry="2"/><rect class="c" x="178" y="82" rx="2" ry="2"/><rect class="c" x="178" y="98" rx="2" ry="2"/><rect class="c" x="194" y="2" rx="2" ry="2"/><rect class="c" x="194" y="18" rx="2" ry="2"/><rect class="c" x="194" y="34" rx="2" ry="2"/><rect class="c" x="194" y="50" rx="2" ry="2"/><rect class="c" x="194" y="66" rx="2" ry="2"/><rect class="c" x="194" y="82" rx="2" ry="2"/><rect class="c" x="194" y="98" rx="2" ry="2"/><rect class="c" x="210" y="2" rx="2" ry="2"/><rect class="c" x="210" y="18" rx="2" ry="2"/><rect class="c" x="210" y="34" rx="2" ry="2"/><rect class="c" x="210" y="50" rx="2" ry="2"/><rect class="c" x="210" y="66" rx="2" ry="2"/><rect class="c" x="210" y="82" rx="2" ry="2"/><rect class="c" x="210" y="98" rx="2" ry="2"/><rect class="c" x="226" y="2" rx="2" ry="2"/><rect class="c" x="226" y="18" rx="2" ry="2"/><rect class="c" x="226" y="34" rx="2" ry="2"/><rect class="c" x="226" y="50" rx="2" ry="2"/><rect class="c" x="226" y="66" rx="2" ry="2"/><rect class="c" x="226" y="82" rx="2" ry="2"/><rect class="c" x="226" y="98" rx="2" ry="2"/><rect class="c" x="242" y="2" rx="2" ry="2"/><rect class="c" x="242" y="18" rx="2" ry="2"/><rect class="c" x="242" y="34" rx="2" ry="2"/><rect class="c" x="242" y="50" rx="2" ry="2"/><rect class="c" x="242" y="66" rx="2" ry="2"/><rect class="c" x="242" y="82" rx="2" ry="2"/><rect class="c" x="242" y="98" rx="2" ry="2"/><rect class="c" x="258" y="2" rx="2" ry="2"/><rect class="c" x="258" y="18" rx="2" ry="2"/><rect class="c c0" x="258" y="34" rx="2" ry="2"/><rect class="c" x="258" y="50" rx="2" ry="2"/><rect class="c" x="258" y="66" rx="2" ry="2"/><rect class="c" x="258" y="82" rx="2" ry="2"/><rect class="c" x="258" y="98" rx="2" ry="2"/><rect class="c" x="274" y="2" rx="2" ry="2"/><rect class="c" x="274" y="18" rx="2" ry="2"/><rect class="c" x="274" y="34" rx="2" ry="2"/><rect class="c" x="274" y="50" rx="2" ry="2"/><rect class="c" x="274" y="66" rx="2" ry="2"/><rect class="c" x="274" y="82" rx="2" ry="2"/><rect class="c" x="274" y="98" rx="2" ry="2"/><rect class="c" x="290" y="2" rx="2" ry="2"/><rect class="c" x="290" y="18" rx="2" ry="2"/><rect class="c" x="290" y="34" rx="2" ry="2"/><rect class="c" x="290" y="50" rx="2" ry="2"/><rect class="c" x="290" y="66" rx="2" ry="2"/><rect class="c" x="290" y="82" rx="2" ry="2"/><rect class="c" x="290" y="98" rx="2" ry="2"/><rect class="c" x="306" y="2" rx="2" ry="2"/><rect class="c" x="306" y="18" rx="2" ry="2"/><rect class="c" x="306" y="34" rx="2" ry="2"/><rect class="c" x="306" y="50" rx="2" ry="2"/><rect class="c" x="306" y="66" rx="2" ry="2"/><rect class="c" x="306" y="82" rx="2" ry="2"/><rect class="c" x="306" y="98" rx="2" ry="2"/><rect class="c" x="322" y="2" rx="2" ry="2"/><rect class="c" x="322" y="18" rx="2" ry="2"/><rect class="c" x="322" y="34" rx="2" ry="2"/><rect class="c" x="322" y="50" rx="2" ry="2"/><rect class="c" x="322" y="66" rx="2" ry="2"/><rect class="c c1" x="322" y="82" rx="2" ry="2"/><rect class="c" x="322" y="98" rx="2" ry="2"/><rect class="c" x="338" y="2" rx="2" ry="2"/><rect class="c" x="338" y="18" rx="2" ry="2"/><rect class="c" x="338" y="34" rx="2" ry="2"/><rect class="c" x="338" y="50" rx="2" ry="2"/><rect class="c" x="338" y="66" rx="2" ry="2"/><rect class="c" x="338" y="82" rx="2" ry="2"/><rect class="c" x="338" y="98" rx="2" ry="2"/><rect class="c" x="354" y="2" rx="2" ry="2"/><rect class="c" x="354" y="18" rx="2" ry="2"/><rect class="c" x="354" y="34" rx="2" ry="2"/><rect class="c" x="354" y="50" rx="2" ry="2"/><rect class="c" x="354" y="66" rx="2" ry="2"/><rect class="c" x="354" y="82" rx="2" ry="2"/><rect class="c" x="354" y="98" rx="2" ry="2"/><rect class="c" x="370" y="2" rx="2" ry="2"/><rect class="c" x="370" y="18" rx="2" ry="2"/><rect class="c" x="370" y="34" rx="2" ry="2"/><rect class="c" x="370" y="50" rx="2" ry="2"/><rect class="c" x="370" y="66" rx="2" ry="2"/><rect class="c" x="370" y="82" rx="2" ry="2"/><rect class="c" x="370" y="98" rx="2" ry="2"/><rect class="c" x="386" y="2" rx="2" ry="2"/><rect class="c" x="386" y="18" rx="2" ry="2"/><rect class="c" x="386" y="34" rx="2" ry="2"/><rect class="c c2" x="386" y="50" rx="2" ry="2"/><rect class="c" x="386" y="66" rx="2" ry="2"/><rect class="c" x="386" y="82" rx="2" ry="2"/><rect class="c" x="386" y="98" rx="2" ry="2"/><rect class="c" x="402" y="2" rx="2" ry="2"/><rect class="c" x="402" y="18" rx="2" ry="2"/><rect class="c" x="402" y="34" rx="2" ry="2"/><rect class="c" x="402" y="50" rx="2" ry="2"/><rect class="c" x="402" y="66" rx="2" ry="2"/><rect class="c" x="402" y="82" rx="2" ry="2"/><rect class="c" x="402" y="98" rx="2" ry="2"/><rect class="c" x="418" y="2" rx="2" ry="2"/><rect class="c" x="418" y="18" rx="2" ry="2"/><rect class="c" x="418" y="34" rx="2" ry="2"/><rect class="c" x="418" y="50" rx="2" ry="2"/><rect class="c" x="418" y="66" rx="2" ry="2"/><rect class="c" x="418" y="82" rx="2" ry="2"/><rect class="c" x="418" y="98" rx="2" ry="2"/><rect class="c" x="434" y="2" rx="2" ry="2"/><rect class="c c3" x="434" y="18" rx="2" ry="2"/><rect class="c c4" x="434" y="34" rx="2" ry="2"/><rect class="c c5" x="434" y="50" rx="2" ry="2"/><rect class="c c6" x="434" y="66" rx="2" ry="2"/><rect class="c" x="434" y="82" rx="2" ry="2"/><rect class="c" x="434" y="98" rx="2" ry="2"/><rect class="c" x="450" y="2" rx="2" ry="2"/><rect class="c" x="450" y="18" rx="2" ry="2"/><rect class="c" x="450" y="34" rx="2" ry="2"/><rect class="c" x="450" y="50" rx="2" ry="2"/><rect class="c" x="450" y="66" rx="2" ry="2"/><rect class="c" x="450" y="82" rx="2" ry="2"/><rect class="c" x="450" y="98" rx="2" ry="2"/><rect class="c" x="466" y="2" rx="2" ry="2"/><rect class="c" x="466" y="18" rx="2" ry="2"/><rect class="c" x="466" y="34" rx="2" ry="2"/><rect class="c c7" x="466" y="50" rx="2" ry="2"/><rect class="c" x="466" y="66" rx="2" ry="2"/><rect class="c" x="466" y="82" rx="2" ry="2"/><rect class="c" x="466" y="98" rx="2" ry="2"/><rect class="c c8" x="482" y="2" rx="2" ry="2"/><rect class="c c9" x="482" y="18" rx="2" ry="2"/><rect class="c" x="482" y="34" rx="2" ry="2"/><rect class="c" x="482" y="50" rx="2" ry="2"/><rect class="c ca" x="482" y="66" rx="2" ry="2"/><rect class="c cb" x="482" y="82" rx="2" ry="2"/><rect class="c cc" x="482" y="98" rx="2" ry="2"/><rect class="c cd" x="498" y="2" rx="2" ry="2"/><rect class="c ce" x="498" y="18" rx="2" ry="2"/><rect class="c" x="498" y="34" rx="2" ry="2"/><rect class="c" x="498" y="50" rx="2" ry="2"/><rect class="c" x="498" y="66" rx="2" ry="2"/><rect class="c" x="498" y="82" rx="2" ry="2"/><rect class="c cf" x="498" y="98" rx="2" ry="2"/><rect class="c cg" x="514" y="2" rx="2" ry="2"/><rect class="c ch" x="514" y="18" rx="2" ry="2"/><rect class="c ci" x="514" y="34" rx="2" ry="2"/><rect class="c cj" x="514" y="50" rx="2" ry="2"/><rect class="c ck" x="514" y="66" rx="2" ry="2"/><rect class="c cl" x="514" y="82" rx="2" ry="2"/><rect class="c" x="514" y="98" rx="2" ry="2"/><rect class="c" x="530" y="2" rx="2" ry="2"/><rect class="c" x="530" y="18" rx="2" ry="2"/><rect class="c cm" x="530" y="34" rx="2" ry="2"/><rect class="c" x="530" y="50" rx="2" ry="2"/><rect class="c" x="530" y="66" rx="2" ry="2"/><rect class="c cn" x="530" y="82" rx="2" ry="2"/><rect class="c co" x="530" y="98" rx="2" ry="2"/><rect class="c cp" x="546" y="2" rx="2" ry="2"/><rect class="c cq" x="546" y="18" rx="2" ry="2"/><rect class="c cr" x="546" y="34" rx="2" ry="2"/><rect class="c cs" x="546" y="50" rx="2" ry="2"/><rect class="c ct" x="546" y="66" rx="2" ry="2"/><rect class="c" x="546" y="82" rx="2" ry="2"/><rect class="c" x="546" y="98" rx="2" ry="2"/><rect class="c cu" x="562" y="2" rx="2" ry="2"/><rect class="c cv" x="562" y="18" rx="2" ry="2"/><rect class="c" x="562" y="34" rx="2" ry="2"/><rect class="c" x="562" y="50" rx="2" ry="2"/><rect class="c" x="562" y="66" rx="2" ry="2"/><rect class="c cw" x="562" y="82" rx="2" ry="2"/><rect class="c cx" x="562" y="98" rx="2" ry="2"/><rect class="c cy" x="578" y="2" rx="2" ry="2"/><rect class="c" x="578" y="18" rx="2" ry="2"/><rect class="c" x="578" y="34" rx="2" ry="2"/><rect class="c" x="578" y="50" rx="2" ry="2"/><rect class="c" x="578" y="66" rx="2" ry="2"/><rect class="c" x="578" y="82" rx="2" ry="2"/><rect class="c" x="578" y="98" rx="2" ry="2"/><rect class="c" x="594" y="2" rx="2" ry="2"/><rect class="c cz" x="594" y="18" rx="2" ry="2"/><rect class="c c10" x="594" y="34" rx="2" ry="2"/><rect class="c" x="594" y="50" rx="2" ry="2"/><rect class="c" x="594" y="66" rx="2" ry="2"/><rect class="c c11" x="594" y="82" rx="2" ry="2"/><rect class="c" x="594" y="98" rx="2" ry="2"/><rect class="c c12" x="610" y="2" rx="2" ry="2"/><rect class="c" x="610" y="18" rx="2" ry="2"/><rect class="c c13" x="610" y="34" rx="2" ry="2"/><rect class="c c14" x="610" y="50" rx="2" ry="2"/><rect class="c" x="610" y="66" rx="2" ry="2"/><rect class="c c15" x="610" y="82" rx="2" ry="2"/><rect class="c c16" x="610" y="98" rx="2" ry="2"/><rect class="c" x="626" y="2" rx="2" ry="2"/><rect class="c" x="626" y="18" rx="2" ry="2"/><rect class="c" x="626" y="34" rx="2" ry="2"/><rect class="c c17" x="626" y="50" rx="2" ry="2"/><rect class="c c18" x="626" y="66" rx="2" ry="2"/><rect class="c c19" x="626" y="82" rx="2" ry="2"/><rect class="c c1a" x="626" y="98" rx="2" ry="2"/><rect class="c" x="642" y="2" rx="2" ry="2"/><rect class="c c1b" x="642" y="18" rx="2" ry="2"/><rect class="c c1c" x="642" y="34" rx="2" ry="2"/><rect class="c c1d" x="642" y="50" rx="2" ry="2"/><rect class="c c1e" x="642" y="66" rx="2" ry="2"/><rect class="c c1f" x="642" y="82" rx="2" ry="2"/><rect class="c c1g" x="642" y="98" rx="2" ry="2"/><rect class="c c1h" x="658" y="2" rx="2" ry="2"/><rect class="c c1i" x="658" y="18" rx="2" ry="2"/><rect class="c" x="658" y="34" rx="2" ry="2"/><rect class="c c1j" x="658" y="50" rx="2" ry="2"/><rect class="c" x="658" y="66" rx="2" ry="2"/><rect class="c c1k" x="658" y="82" rx="2" ry="2"/><rect class="c c1l" x="658" y="98" rx="2" ry="2"/><rect class="c c1m" x="674" y="2" rx="2" ry="2"/><rect class="c c1n" x="674" y="18" rx="2" ry="2"/><rect class="c c1o" x="674" y="34" rx="2" ry="2"/><rect class="c c1p" x="674" y="50" rx="2" ry="2"/><rect class="c" x="674" y="66" rx="2" ry="2"/><rect class="c" x="674" y="82" rx="2" ry="2"/><rect class="c" x="674" y="98" rx="2" ry="2"/><rect class="c c1q" x="690" y="2" rx="2" ry="2"/><rect class="c" x="690" y="18" rx="2" ry="2"/><rect class="c c1r" x="690" y="34" rx="2" ry="2"/><rect class="c c1s" x="690" y="50" rx="2" ry="2"/><rect class="c" x="690" y="66" rx="2" ry="2"/><rect class="c" x="690" y="82" rx="2" ry="2"/><rect class="c" x="690" y="98" rx="2" ry="2"/><rect class="c" x="706" y="2" rx="2" ry="2"/><rect class="c" x="706" y="18" rx="2" ry="2"/><rect class="c" x="706" y="34" rx="2" ry="2"/><rect class="c" x="706" y="50" rx="2" ry="2"/><rect class="c" x="706" y="66" rx="2" ry="2"/><rect class="c" x="706" y="82" rx="2" ry="2"/><rect class="c" x="706" y="98" rx="2" ry="2"/><rect class="c" x="722" y="2" rx="2" ry="2"/><rect class="c" x="722" y="18" rx="2" ry="2"/><rect class="c" x="722" y="34" rx="2" ry="2"/><rect class="c" x="722" y="50" rx="2" ry="2"/><rect class="c" x="722" y="66" rx="2" ry="2"/><rect class="c" x="722" y="82" rx="2" ry="2"/><rect class="c" x="722" y="98" rx="2" ry="2"/><rect class="c" x="738" y="2" rx="2" ry="2"/><rect class="c" x="738" y="18" rx="2" ry="2"/><rect class="c" x="738" y="34" rx="2" ry="2"/><rect class="c" x="738" y="50" rx="2" ry="2"/><rect class="c" x="738" y="66" rx="2" ry="2"/><rect class="c" x="738" y="82" rx="2" ry="2"/><rect class="c" x="738" y="98" rx="2" ry="2"/><rect class="c" x="754" y="2" rx="2" ry="2"/><rect class="c" x="754" y="18" rx="2" ry="2"/><rect class="c" x="754" y="34" rx="2" ry="2"/><rect class="c" x="754" y="50" rx="2" ry="2"/><rect class="c" x="754" y="66" rx="2" ry="2"/><rect class="c" x="754" y="82" rx="2" ry="2"/><rect class="c" x="754" y="98" rx="2" ry="2"/><rect class="c c1t" x="770" y="2" rx="2" ry="2"/><rect class="c c1u" x="770" y="18" rx="2" ry="2"/><rect class="c c1v" x="770" y="34" rx="2" ry="2"/><rect class="c c1w" x="770" y="50" rx="2" ry="2"/><rect class="c c1x" x="770" y="66" rx="2" ry="2"/><rect class="c c1y" x="770" y="82" rx="2" ry="2"/><rect class="c c1z" x="770" y="98" rx="2" ry="2"/><rect class="c c20" x="786" y="2" rx="2" ry="2"/><rect class="c c21" x="786" y="18" rx="2" ry="2"/><rect class="c c22" x="786" y="34" rx="2" ry="2"/><rect class="c" x="786" y="50" rx="2" ry="2"/><rect class="c c23" x="786" y="66" rx="2" ry="2"/><rect class="c c24" x="786" y="82" rx="2" ry="2"/><rect class="c c25" x="786" y="98" rx="2" ry="2"/><rect class="c c26" x="802" y="2" rx="2" ry="2"/><rect class="c c27" x="802" y="18" rx="2" ry="2"/><rect class="c c28" x="802" y="34" rx="2" ry="2"/><rect class="c c29" x="802" y="50" rx="2" ry="2"/><rect class="c c2a" x="802" y="66" rx="2" ry="2"/><rect class="c c2b" x="802" y="82" rx="2" ry="2"/><rect class="c c2c" x="802" y="98" rx="2" ry="2"/><rect class="c c2d" x="818" y="2" rx="2" ry="2"/><rect class="c c2e" x="818" y="18" rx="2" ry="2"/><rect class="c c2f" x="818" y="34" rx="2" ry="2"/><rect class="c c2g" x="818" y="50" rx="2" ry="2"/><rect class="c c2h" x="818" y="66" rx="2" ry="2"/><rect class="c" x="818" y="82" rx="2" ry="2"/><rect class="c c2i" x="818" y="98" rx="2" ry="2"/><rect class="c c2j" x="834" y="2" rx="2" ry="2"/><rect class="c c2k" x="834" y="18" rx="2" ry="2"/><rect class="u u0" height="12" width="611.5" x="0.0" y="144"/><rect class="u u1" height="12" width="119.1" x="610.9" y="144"/><rect class="u u2" height="12" width="9.7" x="729.5" y="144"/><rect class="u u3" height="12" width="73.5" x="738.6" y="144"/><rect class="u u4" height="12" width="37.1" x="811.5" y="144"/><rect class="s s0" x="0.8" y="0.8" width="14.4" height="14.4" rx="4.5" ry="4.5"/><rect class="s s1" x="1.8" y="1.8" width="12.3" height="12.3" rx="4.1" ry="4.1"/><rect class="s s2" x="2.6" y="2.6" width="10.8" height="10.8" rx="3.6" ry="3.6"/><rect class="s s3" x="3.0" y="3.0" width="9.9" height="9.9" rx="3.3" ry="3.3"/></svg>